<svg width="296" height="11" fill="none" xmlns="http://www.w3.org/2000/svg"><path d="M2.3809 10.8545H.911L4.5752.0469h1.4697L2.381 10.8545Zm5.781 0H6.6922L10.3561.0469h1.4697l-3.664 10.8076Zm5.781 0h-1.4697L16.1372.0469h1.4698l-3.6641 10.8076Zm5.781 0h-1.4697L21.9182.0469h1.4698l-3.6641 10.8076Zm5.781 0h-1.4697L27.6993.0469h1.4697l-3.6641 10.8076Zm5.781 0h-1.4697L33.4803.0469H34.95l-3.6641 10.8076Zm5.7811 0h-1.4698L39.2613.0469h1.4697l-3.664 10.8076Zm5.781 0h-1.4698L45.0423.0469h1.4697l-3.664 10.8076Zm5.781 0h-1.4697L50.8233.0469h1.4697l-3.664 10.8076Zm5.781 0h-1.4697L56.6043.0469h1.4698L54.41 10.8545Zm5.781 0h-1.4697L62.3854.0469h1.4697L60.191 10.8545Zm5.781 0h-1.4697L68.1664.0469h1.4697L65.972 10.8545Zm5.781 0h-1.4697L73.9474.0469h1.4697L71.753 10.8545Zm5.7811 0h-1.4698L79.7284.0469h1.4697l-3.664 10.8076Zm5.781 0h-1.4697L85.5094.0469h1.4697l-3.664 10.8076Zm5.781 0h-1.4697L91.2904.0469h1.4698l-3.6641 10.8076Zm5.781 0h-1.4697L97.0714.0469h1.4698l-3.6641 10.8076Zm5.7809 0h-1.4696L102.852.0469h1.47l-3.664 10.8076Zm5.781 0h-1.47L108.633.0469h1.47l-3.664 10.8076Zm5.781 0h-1.47L114.414.0469h1.47l-3.664 10.8076Zm5.781 0h-1.47L120.196.0469h1.469l-3.664 10.8076Zm5.781 0h-1.47L125.977.0469h1.469l-3.664 10.8076Zm5.781 0h-1.47L131.758.0469h1.469l-3.664 10.8076Zm5.781 0h-1.47L137.539.0469h1.469l-3.664 10.8076Zm5.781 0h-1.469L143.32.0469h1.469l-3.664 10.8076Zm5.781 0h-1.469L149.101.0469h1.469l-3.664 10.8076Zm5.781 0h-1.469L154.882.0469h1.469l-3.664 10.8076Zm5.781 0h-1.469L160.663.0469h1.469l-3.664 10.8076Zm5.781 0h-1.469L166.444.0469h1.469l-3.664 10.8076Zm5.781 0h-1.469L172.225.0469h1.469l-3.664 10.8076Zm5.781 0h-1.469L178.006.0469h1.469l-3.664 10.8076Zm5.781 0h-1.469L183.787.0469h1.469l-3.664 10.8076Zm5.781 0h-1.469L189.568.0469h1.469l-3.664 10.8076Zm5.781 0h-1.469L195.349.0469h1.469l-3.664 10.8076Zm5.781 0h-1.469L201.13.0469h1.469l-3.664 10.8076Zm5.781 0h-1.469L206.911.0469h1.469l-3.664 10.8076Zm5.781 0h-1.469L212.692.0469h1.469l-3.664 10.8076Zm5.781 0h-1.469L218.473.0469h1.47l-3.665 10.8076Zm5.781 0h-1.469L224.254.0469h1.47l-3.665 10.8076Zm5.781 0h-1.469L230.035.0469h1.47l-3.665 10.8076Zm5.781 0h-1.469L235.816.0469h1.47l-3.665 10.8076Zm5.781 0h-1.469L241.597.0469h1.47l-3.665 10.8076Zm5.782 0h-1.47L247.378.0469h1.47l-3.664 10.8076Zm5.781 0h-1.47L253.159.0469h1.47l-3.664 10.8076Zm5.781 0h-1.47L258.94.0469h1.47l-3.664 10.8076Zm5.781 0h-1.47L264.721.0469h1.47l-3.664 10.8076Zm5.781 0h-1.47L270.502.0469h1.47l-3.664 10.8076Zm5.781 0h-1.47L276.283.0469h1.47l-3.664 10.8076Zm5.781 0h-1.47L282.064.0469h1.47l-3.664 10.8076Zm5.781 0h-1.47L287.845.0469h1.47l-3.664 10.8076Zm5.781 0h-1.47L293.626.0469h1.47l-3.664 10.8076Z" fill="#002FF4"/></svg>