<svg width="36" height="36" fill="none" xmlns="http://www.w3.org/2000/svg"><circle cx="18" cy="18" r="18" fill="#B0F7E5"/><path d="M16.6797 11.6055c-.3516.3515-.3164.8789 0 1.2304l4.2539 4.0079H10.8438c-.4922 0-.8438.3867-.8438.8437v1.125c0 .4922.3516.8437.8438.8437h10.0898l-4.2539 4.043a.9162.9162 0 0 0 0 1.2305l.7734.7734c.3516.3164.8789.3164 1.1953 0l6.8555-6.8554c.3164-.3165.3164-.8438 0-1.1954l-6.8555-6.8203c-.3164-.3164-.8437-.3164-1.1953 0l-.7734.7735Z" fill="#021037" style="mix-blend-mode:multiply"/></svg>