<svg width="200" height="200" fill="none" xmlns="http://www.w3.org/2000/svg"><path d="M98.15 7.5298L86 20.5098v.01L76.85 199.58h-3.33l9.19-179.6702h.01l17.64-19.91 17.34 20.89 8.74 178.6902H98.36L98.15 7.5298z" fill="#64DEDF"/><path d="M84.64 77.4197c51.36-28.33 96.76-31.87 105.36-17.32 4.31 7.25 0 20.37-11.51 35.1C165.17 112.29 144 129.61 119 144c-1.28.74-2.59 1.48-3.89 2.19-51.4 28.3-96.81 31.81-105.45 17.3-4.3-7.25 0-20.38 11.52-35.11 13.35-17.08 34.51-34.3803 59.57-48.7703 1.28-.74 2.59-1.47 3.89-2.19zm-3.92-6.85c-1.33.73-2.67 1.49-4 2.25C23.1 103.56-10.01 145.93 2.72 167.45c12.46 21 64 14.4 116.23-14.43 1.33-.74 2.67-1.49 4-2.26 53.63-30.74 86.74-73.1002 74-94.6303-12.46-21-63.95-14.4-116.23 14.44z" fill="#64DEDF"/><path d="M115.05 77.4199c1.29.72 2.6 1.45 3.89 2.19C144 93.9999 165.16 111.3 178.51 128.38c11.49 14.73 15.82 27.86 11.49 35.11-8.63 14.54-54 11-105.39-17.33-1.3-.71-2.61-1.45-3.9-2.19-25.04-14.36-46.19-31.68-59.54-48.7701-11.52-14.73-15.82-27.85-11.52-35.1 8.64-14.55 54-11 105.4 17.32zm3.95-6.85c-52.31-28.84-103.8-35.42-116.26-14.44C-10 77.6599 23.08 120 76.7 150.76c1.34.77 2.67 1.52 4 2.26 52.27 28.83 103.76 35.41 116.22 14.43 12.78-21.52-20.33-63.89-74-94.6301-1.33-.76-2.67-1.52-4-2.25h.08z" fill="#64DEDF"/><path d="M81.34 111.79l16.9-24.1302-.09-80.13L86 20.5098 81.34 111.79z" fill="#fff"/></svg>