<svg width="507" height="297" fill="none" xmlns="http://www.w3.org/2000/svg"><path d="M416.241 145.854a337.0652 337.0652 0 0 0-16.297-5.131c.908-3.685 1.747-7.387 2.518-11.105 12.336-59.8278 4.27-108.0248-23.274-123.8907-26.409-15.2173-69.601.6492-113.223 38.5742-4.298 3.7457-8.5 7.598-12.605 11.5569a308.4446 308.4446 0 0 0-8.388-7.7406C199.255 7.5633 153.43-9.5246 125.915 6.3881c-26.3838 15.2591-34.1988 60.571-23.093 117.2699a338.167 338.167 0 0 0 3.742 16.752c-6.484 1.84-12.7457 3.8-18.7369 5.887C34.23 164.965 0 194.225 0 224.574c0 31.346 36.7438 62.786 92.5722 81.848a289.0318 289.0318 0 0 0 13.6888 4.275 331.0707 331.0707 0 0 0-3.976 18.057c-10.589 55.714-2.3193 99.951 23.995 115.117 27.179 15.657 72.796-.437 117.215-39.228 3.511-3.067 7.032-6.31 10.564-9.729 4.445 4.285 9.006 8.443 13.685 12.475 43.026 36.989 85.519 51.926 111.811 36.721 27.155-15.705 35.978-63.228 24.52-121.048-.873-4.417-1.885-8.923-3.035-13.52 3.203-.945 6.342-1.924 9.414-2.937 58.037-19.208 95.796-50.266 95.796-82.031 0-30.458-35.332-59.916-90.009-78.72ZM280.163 60.6021c37.376-32.4976 72.307-45.3274 88.223-36.1568 16.952 9.7684 23.546 49.1573 12.894 100.8127-.698 3.365-1.457 6.717-2.276 10.055a518.5254 518.5254 0 0 0-67.689-10.684 507.7813 507.7813 0 0 0-42.793-53.3587 317.9292 317.9292 0 0 1 11.641-10.6682ZM149.478 250.499a635.8557 635.8557 0 0 0 14.353 26.171 639.2073 639.2073 0 0 0 15.894 25.974c-15.67-1.698-31.243-4.2-46.656-7.494 4.47-14.42 9.977-29.408 16.409-44.651Zm-.024-50.816c-6.298-14.924-11.686-29.596-16.087-43.765 14.445-3.23 29.847-5.869 45.896-7.873a635.4591 635.4591 0 0 0-15.52 25.482 636.6945 636.6945 0 0 0-14.289 26.156Zm11.496 25.41a612.581 612.581 0 0 1 21.533-40.775v.005a606.7052 606.7052 0 0 1 24.547-39.042c15.055-1.138 30.493-1.733 46.097-1.733 15.675 0 31.132.6 46.183 1.746a650.0047 650.0047 0 0 1 24.392 38.91 707.4935 707.4935 0 0 1 21.825 40.582 650.3103 650.3103 0 0 1-21.753 40.94h-.002a708.4412 708.4412 0 0 1-24.287 39.15c-15.02 1.072-30.542 1.625-46.36 1.625-15.753 0-31.078-.49-45.836-1.446a612.917 612.917 0 0 1-24.741-39.21 607.4122 607.4122 0 0 1-21.599-40.752h.001Zm181.557 51.427a685.7811 685.7811 0 0 0 14.681-26.798 458.6212 458.6212 0 0 1 17.001 44.492 459.2847 459.2847 0 0 1-47.225 8.043 756.0908 756.0908 0 0 0 15.543-25.737Zm14.476-76.822a753.9064 753.9064 0 0 0-14.563-26.319 686.7085 686.7085 0 0 0-15.395-25.294c16.154 2.037 31.63 4.746 46.161 8.061a460.8755 460.8755 0 0 1-16.203 43.552ZM253.367 86.7219a462.1487 462.1487 0 0 1 29.792 35.9311 637.5138 637.5138 0 0 0-59.835-.014c9.837-12.958 19.912-24.996 30.043-35.9171ZM136.75 25.0876c16.938-9.7951 54.388 4.1723 93.861 39.1869 2.522 2.2384 5.056 4.582 7.595 7.0062A517.889 517.889 0 0 0 195.081 124.6a528.8356 528.8356 0 0 0-67.555 10.49 315.3628 315.3628 0 0 1-3.479-15.584v.002c-9.516-48.5803-3.198-85.2242 12.703-94.4204ZM112.064 289.885c-4.196-1.2-8.362-2.503-12.4969-3.908A183.2772 183.2772 0 0 1 40.522 254.64a44.6748 44.6748 0 0 1-12.5671-13.077 44.63 44.63 0 0 1-6.329-16.989c0-18.416 27.4839-41.908 73.322-57.874a312.1223 312.1223 0 0 1 17.4241-5.478 517.914 517.914 0 0 0 24.674 63.878 525.8924 525.8924 0 0 0-24.982 64.785Zm117.2 98.488a183.1839 183.1839 0 0 1-56.671 35.445h-.002a44.7289 44.7289 0 0 1-17.614 4.344 44.7321 44.7321 0 0 1-17.891-3.01c-15.97-9.2-22.606-44.723-13.553-92.367 1.077-5.631 2.31-11.228 3.698-16.793a508.8865 508.8865 0 0 0 68.223 9.867A525.8891 525.8891 0 0 0 238.91 379.5a267.9607 267.9607 0 0 1-9.646 8.873Zm24.701-24.421c-10.25-11.051-20.473-23.273-30.459-36.419 9.692.382 19.565.573 29.619.573 10.32 0 20.506-.226 30.56-.678a459.3112 459.3112 0 0 1-29.72 36.524Zm131.328 30.061a44.6067 44.6067 0 0 1-5.03 17.415 44.6324 44.6324 0 0 1-11.544 13.983c-15.955 9.227-50.075-2.767-86.868-34.4-4.219-3.626-8.462-7.491-12.73-11.595a507.9289 507.9289 0 0 0 42.435-53.832 505.3729 505.3729 0 0 0 68.565-10.559c1.031 4.164 1.944 8.242 2.74 12.235a182.7968 182.7968 0 0 1 2.432 66.753Zm18.361-107.915h-.002c-2.767.915-5.608 1.799-8.503 2.656a506.9361 506.9361 0 0 0-25.635-64.074 506.711 506.711 0 0 0 24.638-63.14c5.178 1.5 10.205 3.078 15.049 4.745 46.849 16.11 75.424 39.933 75.424 58.288 0 19.553-30.863 44.936-80.971 61.525Z" fill="#000722"/><path d="M253.127 179.407c8.941 0 17.682 2.649 25.116 7.612a45.1673 45.1673 0 0 1 16.651 20.269 45.128 45.128 0 0 1 2.573 26.096 45.1499 45.1499 0 0 1-12.372 23.125 45.2223 45.2223 0 0 1-23.148 12.361 45.2455 45.2455 0 0 1-26.119-2.57 45.2026 45.2026 0 0 1-20.289-16.636 45.1377 45.1377 0 0 1-7.618-25.092c0-11.979 4.763-23.466 13.24-31.936 8.478-8.47 19.977-13.229 31.966-13.229Z" fill="#64DEDF"/></svg>